<?xml version="1.0" encoding="UTF-8"?>
<svg version="1.1" xmlns="http://www.w3.org/2000/svg" width="1470" height="1227">
<path d="M0 0 C0.33 0 0.66 0 1 0 C1.15033691 1.03479492 1.30067383 2.06958984 1.45556641 3.13574219 C8.61205978 52.13019681 18.90394644 99.8741707 40 145 C40.5868457 146.26432861 40.5868457 146.26432861 41.18554688 147.55419922 C53.99587293 174.88538156 70.77925927 199.64058704 91 222 C91.52899902 222.59071289 92.05799805 223.18142578 92.60302734 223.79003906 C98.41399037 230.27115598 104.30231165 236.42252361 111 242 C111.9796875 242.86753906 112.959375 243.73507812 113.96875 244.62890625 C135.96388272 264.07007875 160.86163399 278.83929862 187 292 C182.48444382 267.18279693 169.33360388 247.01212719 150.0859375 230.76953125 C147.73473557 228.77497231 145.46415964 226.70415762 143.1875 224.625 C139.80114819 221.5680198 136.35725295 218.62156544 132.8125 215.75 C77.61762066 170.85093967 77.61762066 170.85093967 74 136 C73.36357069 125.21643107 73.59352516 114.5713002 76 104 C76.66 104 77.32 104 78 104 C78.42913696 105.13876587 78.42913696 105.13876587 78.86694336 106.30053711 C87.92057881 130.18991617 97.25751198 151.11808614 115 170 C115.52722656 170.60328125 116.05445313 171.2065625 116.59765625 171.828125 C128.76424801 185.14603107 146.27116771 192.31703889 163.3125 196.8125 C178.52969029 200.87643394 192.58962124 208.02556594 204 219 C204.79664063 219.75667969 205.59328125 220.51335937 206.4140625 221.29296875 C218.25628285 233.43223476 222.80179043 248.27485095 223.375 264.875 C222.46715397 294.00501614 210.98354408 319.09338192 190.109375 339.23046875 C148.98838176 376.57531849 93.62552168 394.06277855 41 408 C98.75675637 399.73890954 151.57504283 375.51686404 197 339 C197.93714844 338.25492187 198.87429688 337.50984375 199.83984375 336.7421875 C205.47647155 332.20442543 210.88423889 327.46463779 216.19921875 322.5546875 C218.38296146 320.56282177 220.59089275 318.62163703 222.828125 316.69140625 C227.07980783 312.98201202 231.08549167 309.06265289 235.0625 305.0625 C235.73087891 304.39798828 236.39925781 303.73347656 237.08789062 303.04882812 C240.42085597 299.70938472 243.63517717 296.31802645 246.71875 292.74609375 C255.06330366 283.1005392 267.09908005 274.4510446 279.9296875 272.359375 C285.02909789 272.20844108 288.87340395 272.50587893 293.5625 274.5625 C303.12930255 284.12930255 304.54567409 295.01372512 306 308 C333.45349588 308.75100749 356.8853814 300.41956034 378 283 C378.56847656 282.53158691 379.13695312 282.06317383 379.72265625 281.58056641 C392.12426611 271.59145702 392.12426611 271.59145702 402.61328125 259.75 C403.07089844 259.1725 403.52851562 258.595 404 258 C404.66 258 405.32 258 406 258 C403.84693725 275.11313672 392.26118323 287.10000254 380.43652344 298.76928711 C378.99610504 300.19134532 377.56395526 301.62134739 376.1328125 303.05273438 C371.55334258 307.60366189 366.91632691 312.00418214 362.01953125 316.2097168 C357.84965988 319.90624325 353.94049959 323.87498563 350 327.8125 C349.14921875 328.65103516 348.2984375 329.48957031 347.421875 330.35351562 C343.23927799 334.5264901 339.16888275 338.78412304 335.3125 343.26171875 C334.64863281 344.02830811 333.98476562 344.79489746 333.30078125 345.5847168 C331.73117788 348.00663731 331.73117788 348.00663731 332.1328125 351.15551758 C332.79331009 354.21663769 332.79331009 354.21663769 335.5625 356.25 C357.93317813 367.63870886 393.09737849 355.93382529 415.54296875 349.75390625 C418.83194848 349.03664852 419.94347654 349.06258806 423 350 C402.09659984 370.36237098 377.06026134 381.37156368 347.73950195 381.10253906 C345.82622402 381.07524492 343.91308227 381.03864813 342 381 C342.09087891 381.64098633 342.18175781 382.28197266 342.27539062 382.94238281 C347.18962197 418.56425978 346.51955152 450.84752875 331.24560547 483.61987305 C316.76520646 515.20206986 321.45371961 553.18986894 333 585 C334.27457866 588.17211089 335.62907739 591.30600703 337 594.4375 C351.33403223 627.24188848 355.5734665 665.37150046 343.4375 699.50390625 C335.69145995 718.34278083 322.42107668 731.64859033 303.91015625 739.90625 C301.25180345 740.90536246 298.78157745 741.4820612 296 742 C293.79697443 732.86273155 291.92209726 723.69681759 290.21020508 714.45727539 C289.80576579 712.27618322 289.39631733 710.0960707 288.98632812 707.91601562 C287 697.27977284 287 697.27977284 287 695 C286.31373535 695.00523682 285.6274707 695.01047363 284.92041016 695.01586914 C281.82194936 695.03660956 278.72350314 695.04965076 275.625 695.0625 C274.54476562 695.07087891 273.46453125 695.07925781 272.3515625 695.08789062 C271.3203125 695.09111328 270.2890625 695.09433594 269.2265625 695.09765625 C268.27346191 695.10289307 267.32036133 695.10812988 266.33837891 695.11352539 C264 695 264 695 262 694 C262.03029297 694.62640381 262.06058594 695.25280762 262.09179688 695.89819336 C262.84854377 711.94268286 263.13427554 727.93858005 263 744 C244.72260224 742.78123139 228.96203092 735.31728954 216.7890625 721.48828125 C198.73576003 698.90624932 194.56578444 670.66902766 194.875 642.5625 C194.88506579 640.9446671 194.89418518 639.32682802 194.90234375 637.70898438 C194.92230937 633.8057048 194.96150157 629.90331298 195 626 C186.75 624.35 178.5 622.7 170 621 C169.319375 617.2875 168.63875 613.575 167.9375 609.75 C159.6040532 567.22641912 135.05871718 530.54766929 101 504 C100.43071777 503.54898926 99.86143555 503.09797852 99.27490234 502.63330078 C81.16896698 488.33353423 59.31284909 473.55393917 37 467 C37.53141602 467.32049316 38.06283203 467.64098633 38.61035156 467.97119141 C61.97109375 482.11269423 83.90984333 497.45772057 104 516 C105.00804747 516.90613645 106.01722343 517.81101859 107.02734375 518.71484375 C112.74371764 523.84993647 118.07990285 529.0874369 123 535 C123.80695312 535.9075 124.61390625 536.815 125.4453125 537.75 C146.06362686 561.08026609 161.52166789 589.48364613 168 620 C138.44420651 619.33919974 111.16212631 605.81446755 90.69140625 585.0234375 C85.79337792 579.70942194 81.22878962 573.45757923 78 567 C77.08905845 614.17718356 103.25384176 655.97327173 134.51171875 689.328125 C136.58486561 691.5542356 138.58760465 693.81247618 140.5625 696.125 C143.96654239 700.05964851 147.64877781 703.68433629 151.375 707.3125 C153.33963751 709.3239146 155.15250843 711.33212793 156.96875 713.46875 C162.46389055 719.80838184 168.53788326 725.60503502 174.5 731.5 C188.76660862 745.60592276 188.76660862 745.60592276 195 753 C195.95957881 754.08439161 196.92176016 755.16648662 197.88671875 756.24609375 C213.02222253 773.3895317 228.77153801 793.66862191 230.56640625 817.29296875 C230.64963135 818.36442139 230.73285645 819.43587402 230.81860352 820.53979492 C230.87846436 821.3516626 230.9383252 822.16353027 231 823 C230.03102783 823.06469482 229.06205566 823.12938965 228.0637207 823.19604492 C163.09048992 827.62081939 104.8088175 847.57989667 44.77624512 871.39401245 C-42.03205488 905.8053713 -42.03205488 905.8053713 -82 908 C-83.52173828 908.08894531 -83.52173828 908.08894531 -85.07421875 908.1796875 C-112.51022822 908.9178761 -136.58750264 899.65150812 -156.45507812 880.875 C-165.62089523 871.97569844 -172.56143102 861.81022851 -178.875 850.75 C-179.23231201 850.12512695 -179.58962402 849.50025391 -179.95776367 848.85644531 C-184.7768048 840.13508412 -187.60569465 831.2597068 -189.75 821.5625 C-197.99344565 786.09214611 -211.27216409 752.90449688 -225.91308594 719.65332031 C-248.40020722 668.57129077 -272.59373893 611.33269752 -260.75 554.375 C-260.44328369 552.88395752 -260.44328369 552.88395752 -260.13037109 551.36279297 C-258.67273198 545.09703812 -257.10088118 541.9311378 -251.4675293 538.42285156 C-250.03534058 537.66439941 -250.03534058 537.66439941 -248.57421875 536.890625 C-247.48407471 536.30925781 -246.39393066 535.72789062 -245.27075195 535.12890625 C-244.07656701 534.50216121 -242.88214232 533.8758728 -241.6875 533.25 C-240.4336533 532.58758887 -239.17999503 531.92482096 -237.92651367 531.26171875 C-235.28933251 529.86912643 -232.64920146 528.48233814 -230.00683594 527.09960938 C-227.39457702 525.7324961 -224.78577415 524.35920215 -222.18066406 522.97851562 C-202.46337306 512.53200877 -182.46459749 502.89609146 -162 494 C-161.31442017 493.70158203 -160.62884033 493.40316406 -159.92248535 493.09570312 C-137.02587478 483.15483553 -113.70211182 474.80650777 -90 467 C-105.07975415 469.21504797 -105.07975415 469.21504797 -119.9375 472.5625 C-120.88020752 472.81443115 -121.82291504 473.0663623 -122.79418945 473.32592773 C-167.50227876 485.68890129 -207.82549117 508.13082735 -246 534 C-247.81138005 535.21001157 -249.62370316 536.41861419 -251.4375 537.625 C-252.13746094 538.09164062 -252.83742188 538.55828125 -253.55859375 539.0390625 C-254.03425781 539.35617187 -254.50992187 539.67328125 -255 540 C-256.43281741 535.70154776 -254.91348567 532.36839044 -253.625 528.1875 C-253.35534424 527.30457275 -253.08568848 526.42164551 -252.80786133 525.51196289 C-238.98308633 481.59002344 -214.75701621 444.00157596 -183 411 C-182.24976563 410.20851563 -181.49953125 409.41703125 -180.7265625 408.6015625 C-176.42497892 404.15951905 -171.78272843 400.2642218 -166.95703125 396.40234375 C-164.44007856 394.35752749 -161.99614641 392.25205396 -159.5612793 390.11108398 C-111.9577381 348.61151523 -50.09945434 326.26020326 9 307 C-24.00621332 312.99774305 -55.99827797 322.87057809 -86.50585938 336.85791016 C-88.79360104 337.90548802 -91.09006198 338.93020218 -93.390625 339.94921875 C-124.76784582 354.04237725 -154.39686188 373.87619223 -180.24707031 396.51831055 C-181.54573697 397.61602753 -182.87277164 398.68037304 -184.21386719 399.72583008 C-192.75796109 406.44723779 -200.32569057 414.05630106 -207.97167969 421.76586914 C-210.25399976 424.0665319 -212.54430719 426.35900504 -214.8359375 428.65039062 C-216.31297349 430.13234073 -217.78955194 431.61474703 -219.265625 433.09765625 C-220.27523285 434.10893333 -220.27523285 434.10893333 -221.30523682 435.14064026 C-225.72657799 439.60573623 -229.91228207 444.22852534 -234 449 C-234.68878235 449.79732796 -234.68878235 449.79732796 -235.39147949 450.61076355 C-241.97542949 458.25085695 -248.33711928 466.04562213 -254.48828125 474.03759766 C-255.51329872 475.36820011 -256.54207166 476.69591644 -257.57421875 478.02099609 C-264.26475041 486.62850015 -270.63400997 495.35788137 -276.58203125 504.4921875 C-277.57895849 506.01083612 -278.57602998 507.52939005 -279.57324219 509.04785156 C-281.52954268 512.02928077 -283.44954068 515.03025378 -285.35253906 518.04589844 C-291.62772886 527.76421671 -298.12788465 534.00676344 -308 540 C-309.30384644 540.82346924 -309.30384644 540.82346924 -310.6340332 541.66357422 C-312.85544105 543.03636744 -315.10022775 544.34295187 -317.375 545.625 C-318.17824707 546.08318115 -318.98149414 546.5413623 -319.80908203 547.01342773 C-327.40116545 551.30281241 -335.14292196 555.22356249 -343 559 C-344.54818237 559.75259328 -346.09635922 560.50519795 -347.64453125 561.2578125 C-357.30250751 565.9240899 -367.04561689 570.37380123 -376.85092163 574.71972656 C-399.29193208 584.67860337 -419.64564052 595.52220668 -438 612 C-438.65226563 612.56847656 -439.30453125 613.13695312 -439.9765625 613.72265625 C-455.30707529 627.92699393 -464.42701379 647.63776383 -470.75 667.125 C-475.46954277 681.5661064 -482.12338121 694.06257909 -490 707 C-491.14981455 708.92886729 -492.29826973 710.85854562 -493.4453125 712.7890625 C-496.90007257 718.56604402 -500.43329307 724.29157362 -504 730 C-504.97138916 731.55581787 -504.97138916 731.55581787 -505.96240234 733.14306641 C-514.51342481 746.78787482 -523.36607195 760.09714704 -533 773 C-534.06395012 774.43608826 -535.1277519 775.87228642 -536.19140625 777.30859375 C-541.65168591 784.65672255 -547.21311333 791.90487622 -553 799 C-554.05767578 800.31871094 -554.05767578 800.31871094 -555.13671875 801.6640625 C-559.79396511 807.43482151 -564.63434205 812.98160001 -569.65625 818.4375 C-571.68613667 820.65684276 -573.66495498 822.90672034 -575.625 825.1875 C-579.21631192 829.32736554 -583.08075802 833.17237666 -587 837 C-587.33 836.34 -587.66 835.68 -588 835 C-586.75671073 832.2088156 -585.44241865 829.56294606 -584 826.875 C-583.55720703 826.04258789 -583.11441406 825.21017578 -582.65820312 824.35253906 C-575.18355821 810.55436484 -566.64242688 797.31988218 -557.875 784.3125 C-528.82661458 743.06461583 -528.82661458 743.06461583 -520 695 C-520.79981143 691.58471326 -521.79934665 688.29464997 -523 685 C-523.52207031 685.58007812 -524.04414062 686.16015625 -524.58203125 686.7578125 C-537.11049288 700.05421837 -554.02945172 704.74970876 -571.3125 709.125 C-581.15502603 711.53709755 -581.15502603 711.53709755 -590.73046875 714.8046875 C-594 716 -594 716 -597 715 C-596.4831665 714.63874023 -595.96633301 714.27748047 -595.43383789 713.90527344 C-590.18193855 710.23352489 -584.93235628 706.55848454 -579.68457031 702.88085938 C-578.02030984 701.71484785 -576.35566986 700.54937756 -574.69042969 699.38476562 C-552.83134368 684.09240093 -531.32195329 668.46705443 -512 650 C-511.15526123 649.20408447 -511.15526123 649.20408447 -510.29345703 648.39208984 C-492.62243583 631.67573773 -478.34766922 611.88529369 -476 587 C-507.82981716 593.41095257 -530.48764522 607.26410425 -549 634 C-550.74071753 636.63540891 -552.3911511 639.28160013 -554 642 C-558.21395819 635.67906271 -556.63088506 625.07882957 -555.34765625 617.77734375 C-552.18900938 602.71260971 -544.63406886 591.76161391 -534 581 C-533.15888672 580.05060547 -533.15888672 580.05060547 -532.30078125 579.08203125 C-507.68725886 551.88441202 -463.64177567 539.21482253 -430.50390625 526.62109375 C-399.921494 515.10722894 -399.921494 515.10722894 -370 502 C-369.23365234 501.6376123 -368.46730469 501.27522461 -367.67773438 500.90185547 C-363.06459657 498.69957831 -358.51522786 496.39601412 -354 494 C-352.25783203 493.08541016 -352.25783203 493.08541016 -350.48046875 492.15234375 C-334.79652874 484.15002999 -334.79652874 484.15002999 -323 472 C-323.68473389 472.27038086 -324.36946777 472.54076172 -325.07495117 472.81933594 C-352.8981897 483.74082103 -381.04481064 493.26912174 -410.0625 500.5 C-410.87087311 500.70182892 -411.67924622 500.90365784 -412.51211548 501.11160278 C-421.57109207 503.35692285 -430.66582768 505.40576782 -439.80859375 507.28125 C-440.6390773 507.45474976 -441.46956085 507.62824951 -442.32521057 507.80700684 C-446.62203638 508.66686243 -450.59161631 509.19523793 -455 509 C-452.07187872 506.67071612 -449.12393433 504.9475665 -445.77026367 503.29541016 C-444.20032906 502.51781845 -444.20032906 502.51781845 -442.59867859 501.72451782 C-440.90047722 500.89021744 -440.90047722 500.89021744 -439.16796875 500.0390625 C-437.972985 499.44726399 -436.77827277 498.85491693 -435.58381653 498.26205444 C-430.54009631 495.75987188 -425.4915978 493.26740512 -420.44116211 490.77880859 C-399.90744806 480.65514737 -379.55880799 470.2001112 -360.3125 457.75 C-359.40806152 457.16992188 -358.50362305 456.58984375 -357.57177734 455.9921875 C-350.80695457 451.61444851 -344.33606439 446.98124677 -338 442 C-336.41964408 440.80854045 -334.83662127 439.6206034 -333.25 438.4375 C-332.16648696 437.62523967 -331.08311945 436.8127851 -330 436 C-340.99081701 436.53512651 -351.80103441 437.59336688 -362.6875 439.1875 C-363.43845947 439.29637543 -364.18941895 439.40525085 -364.96313477 439.51742554 C-412.07791724 446.3971109 -460.743861 458.87133723 -500 487 C-500.58136719 487.41459473 -501.16273438 487.82918945 -501.76171875 488.25634766 C-513.30681164 496.58823248 -523.75246762 506.14888563 -533.12109375 516.86328125 C-535.31535226 519.35862305 -537.61325286 521.6902447 -540 524 C-538.99240509 504.51983182 -528.34781872 489.27465493 -515 476 C-514.25878906 475.25878906 -513.51757812 474.51757812 -512.75390625 473.75390625 C-485.56394797 448.20870915 -445.70370412 435.87751509 -411.57998657 422.87875366 C-360.71375964 404.91914077 -360.71375964 404.91914077 -316.85546875 374.6171875 C-315 373 -315 373 -313 373 C-312.60941406 372.14341797 -312.60941406 372.14341797 -312.2109375 371.26953125 C-310.48041763 368.02620207 -308.16771522 365.35334224 -305.8515625 362.51171875 C-303.6067522 359.4665436 -301.83048593 356.31019592 -300 353 C-300.70866211 353.22961426 -301.41732422 353.45922852 -302.14746094 353.69580078 C-309.30280373 356.01262879 -316.46123168 358.31963164 -323.62159729 360.62088013 C-327.84087326 361.97832243 -332.05760636 363.34313832 -336.27099609 364.71875 C-414.99795894 390.42037738 -414.99795894 390.42037738 -450.125 390.0625 C-450.98609375 390.05798828 -451.8471875 390.05347656 -452.734375 390.04882812 C-454.82294785 390.03722494 -456.91148407 390.0192984 -459 390 C-455.97644306 387.54780277 -452.98623768 385.9687614 -449.41796875 384.42578125 C-448.27875977 383.93142578 -447.13955078 383.43707031 -445.96582031 382.92773438 C-444.70658111 382.38885322 -443.44713393 381.85045783 -442.1875 381.3125 C-441.53873901 381.03365967 -440.88997803 380.75481934 -440.22155762 380.4675293 C-369.26143459 349.96964652 -296.69779833 322.02252884 -40 296 C-40 291.05 -40 286.1 -40 281 C-90.84174406 278.42805992 -141.54326046 280.9624386 -192.3203125 283.64453125 C-208.45910705 284.49241471 -224.5863357 285.21557161 -240.74935913 285.35147095 C-242.42100053 285.36681624 -244.09260017 285.38831355 -245.7640686 285.4168396 C-259.15070911 285.62593314 -271.0282958 284.67674807 -281.29296875 275.09765625 C-285.1289708 270.38385053 -285.45041233 265.7773954 -285.30078125 259.89453125 C-284.16544898 248.96880119 -277.20916534 240.67929322 -269.2734375 233.55078125 C-259.5771192 225.85383855 -248.30971544 219.94363928 -236 218 C-236 218.66 -236 219.32 -236 220 C-237.10475231 221.00541491 -238.26173243 221.95363828 -239.4375 222.875 C-248.90519949 230.96618999 -257.01539904 242.36787936 -259 254.875 C-259.24229909 258.75178546 -258.57886211 260.97650649 -256 264 C-251.35825488 268.06152698 -247.00554007 268.17952913 -241.06640625 268.23828125 C-239.85331787 268.25263214 -239.85331787 268.25263214 -238.61572266 268.26727295 C-235.93127615 268.29222771 -233.24704905 268.304497 -230.5625 268.3125 C-229.64016571 268.31611542 -228.71783142 268.31973083 -227.76754761 268.32345581 C-208.54172583 268.35341126 -189.60373135 266.71337892 -170.49952698 264.71003723 C-161.68347753 263.81360643 -152.85136377 263.37701535 -144 263 C-144.79801025 262.43273193 -145.59602051 261.86546387 -146.41821289 261.28100586 C-159.09826285 252.18665845 -171.90502276 241.38325516 -176.4375 225.8125 C-177.75468111 216.88493912 -177.639214 208.998161 -172.1484375 201.45703125 C-165.69557577 193.92109202 -158.58849665 187.88626238 -149 185 C-149.20681396 185.52432617 -149.41362793 186.04865234 -149.62670898 186.58886719 C-150.56619521 188.97491421 -151.50188165 191.3624338 -152.4375 193.75 C-152.92573242 194.9875 -152.92573242 194.9875 -153.42382812 196.25 C-153.73642578 197.04921875 -154.04902344 197.8484375 -154.37109375 198.671875 C-154.65911865 199.4050293 -154.94714355 200.13818359 -155.24389648 200.89355469 C-157.54339024 207.29976461 -158.09194757 213.89657005 -155.8125 220.375 C-151.75993946 226.24422561 -146.73446261 228.37435082 -140 230 C-136.1060316 230.41621674 -132.243565 230.43771031 -128.32983398 230.43237305 C-127.19710556 230.4425647 -126.06437714 230.45275635 -124.89732361 230.46325684 C-121.18019595 230.49327684 -117.46332648 230.50263623 -113.74609375 230.51171875 C-111.15819957 230.52857353 -108.57031355 230.54672484 -105.98243713 230.56611633 C-99.88411879 230.60869747 -93.78586645 230.63827257 -87.68744761 230.66143972 C-80.73928789 230.6885687 -73.79126505 230.73247512 -66.84320343 230.77772844 C-52.56221274 230.87036911 -38.28117187 230.94214359 -24 231 C-23.97455324 229.56649905 -23.95644301 228.13286669 -23.94140625 226.69921875 C-23.93052979 225.90088623 -23.91965332 225.10255371 -23.90844727 224.2800293 C-24.05095194 220.73109282 -24.89645554 218.86846971 -27 216 C-34.79078304 209.18842547 -44.821303 206.84790722 -54.48999023 203.89819336 C-67.96323322 199.75363232 -79.44395431 194.82081645 -89 184 C-85.65328318 182.88442773 -85.09959587 183.07557968 -81.9296875 184.21484375 C-81.12378174 184.48949463 -80.31787598 184.76414551 -79.48754883 185.04711914 C-78.62540771 185.34094482 -77.7632666 185.63477051 -76.875 185.9375 C-64.46031325 189.9076333 -52.27877523 191.35801101 -40 186 C-41.72097523 180.65591902 -43.58692818 175.40464877 -45.61328125 170.16796875 C-46.06098877 169.00934326 -46.50869629 167.85071777 -46.9699707 166.65698242 C-47.30988037 165.78017822 -47.64979004 164.90337402 -48 164 C-48.79470703 164.02094727 -49.58941406 164.04189453 -50.40820312 164.06347656 C-76.83368703 164.66788109 -97.14885235 162.51376526 -117.3984375 143.78125 C-121.3903305 139.91541678 -121.3903305 139.91541678 -123 138 C-123 137.34 -123 136.68 -123 136 C-122.44054687 136.17015625 -121.88109375 136.3403125 -121.3046875 136.515625 C-119.57041068 137.03981156 -117.83454989 137.5587693 -116.09765625 138.07421875 C-113.97611681 138.70827278 -111.85906496 139.35748385 -109.74609375 140.01953125 C-89.37027025 146.20877457 -70.69274868 145.49736597 -50 142 C-50 138.54016092 -50.34724796 135.87696133 -51.05859375 132.52734375 C-51.39020508 130.92922852 -51.39020508 130.92922852 -51.72851562 129.29882812 C-52.19548385 127.08490989 -52.66419023 124.87135745 -53.13476562 122.65820312 C-57.90507271 99.60863237 -56.94771761 75.93712315 -52 53 C-51.8340332 52.22760986 -51.66806641 51.45521973 -51.49707031 50.65942383 C-50.25245998 45.25245998 -50.25245998 45.25245998 -48 43 C-47.97812622 44.63521606 -47.97812622 44.63521606 -47.95581055 46.3034668 C-46.6217853 139.02751645 -21.78412831 220.5243191 45.609375 286.76171875 C50.16436356 291.16309705 55.00290826 295.11266848 60 299 C61.33951402 300.07822021 62.67797384 301.15775083 64.015625 302.23828125 C81.56560318 316.29851677 101.10240034 329.43854883 122 338 C121.11699219 337.31035156 120.23398437 336.62070312 119.32421875 335.91015625 C98.65043013 319.735582 78.84867005 302.87675388 60.2109375 284.38616943 C58.79434139 282.98146903 57.37379492 281.58075592 55.953125 280.18017578 C50.60594427 274.83971745 45.66833498 269.33290698 40.94775391 263.43139648 C39.40575991 261.50651328 37.8411468 259.63105566 36.20703125 257.78515625 C22.64206846 242.36137311 11.58928728 225.12578244 2 207 C1.49726562 206.05060547 0.99453125 205.10121094 0.4765625 204.12304688 C-26.62635514 152.15285835 -36.70184267 88.92847811 -27 31 C-26.67 31 -26.34 31 -26 31 C-25.91024902 31.95849854 -25.82049805 32.91699707 -25.72802734 33.90454102 C-22.83985232 64.30944638 -18.5486695 93.85575537 -9 123 C-8.71463379 123.88848633 -8.42926758 124.77697266 -8.13525391 125.69238281 C6.47613107 170.57315133 33.29055109 213.27383364 67.15234375 246.15234375 C68.74809579 247.74809579 70.16460274 249.35802095 71.5625 251.125 C74.14938971 254.17620324 76.93413205 256.6367986 79.97265625 259.22265625 C81.85035132 260.86880511 83.58127698 262.57735116 85.3125 264.375 C88.96721294 268.08746236 92.95449524 271.30916126 97.01171875 274.5703125 C99.51192842 276.60316272 101.95969189 278.68183106 104.39428711 280.79223633 C110.58983035 286.14288821 117.02032829 291.14248562 123.5625 296.0625 C124.43189209 296.71814941 125.30128418 297.37379883 126.19702148 298.04931641 C127.02016846 298.66339355 127.84331543 299.2774707 128.69140625 299.91015625 C129.42560791 300.45808838 130.15980957 301.00602051 130.91625977 301.57055664 C132.88461367 302.92084511 134.83947374 303.99272968 137 305 C136.05640625 304.18917969 135.1128125 303.37835938 134.140625 302.54296875 C126.94955563 296.34691971 119.83458218 290.09237763 112.87890625 283.6328125 C110.75925658 281.69435405 108.62019405 279.82090163 106.4375 277.95703125 C101.08859061 273.2926154 96.10584142 268.25544639 91.09985352 263.23022461 C89.4407268 261.56573723 87.77631949 259.90666553 86.11132812 258.24804688 C80.5303506 252.6708212 75.10324741 247.02242882 70 241 C69.07502157 239.95126473 68.14801116 238.90431733 67.21875 237.859375 C32.69444126 198.57222367 5.98993026 152.39329918 -5 101 C-5.17934082 100.1946582 -5.35868164 99.38931641 -5.54345703 98.55957031 C-11.52798333 70.54461803 -13.11784901 26.23569802 0 0 Z M139 307 C139.33 307.66 139.66 308.32 140 309 C140.66 308.67 141.32 308.34 142 308 C141.01 307.67 140.02 307.34 139 307 Z M187 420 C176.10978497 432.38322838 174.09624445 445.52667214 174.81787109 461.5390625 C176.19930336 480.20506418 186.88677935 497.51014136 198 512 C217.89998816 538.79643499 228.75475023 570.56620123 238.9375 602 C239.17088074 602.72011261 239.40426147 603.44022522 239.64471436 604.18215942 C242.29949687 612.40163427 244.83047012 620.6364014 247 629 C247.33 629 247.66 629 248 629 C250.80231214 597.67637762 234.86445832 561.35158309 221 534 C220.5786377 533.15888672 220.15727539 532.31777344 219.72314453 531.45117188 C215.28306565 522.69237511 210.51120878 514.95554043 203.97583008 507.61621094 C189.4911509 491.27610964 182.77124552 471.8689113 183.8046875 450.29150391 C184.60638268 440.88561516 188.60190444 432.60461637 194 425 C194.47824219 424.32582031 194.95648437 423.65164063 195.44921875 422.95703125 C203.9179537 412.26978639 216.26634415 405.98781959 228.48046875 400.59375 C232.01163518 399.10930058 232.01163518 399.10930058 235 397 C217.25266475 395.85835855 198.63635396 407.72506564 187 420 Z M244 431 C242.0506452 436.8480644 245.71633255 443.421599 248.359375 448.73046875 C255.41071702 460.95658596 264.19237447 469.27879596 278 473 C281.76484418 467.35273373 281.87818398 461.63237998 281 455 C278.11450556 445.95878408 272.37296511 439.57216257 264.0625 435.1875 C257.41462878 432.12545023 251.32992455 430.69458648 244 431 Z M75 454 C78.2578753 457.60985681 81.98797044 459.97195161 86.125 462.4375 C103.36400429 472.97333241 119.91400347 485.27861259 134.78515625 498.96875 C136.75839244 500.77841988 138.77107813 502.51839891 140.8125 504.25 C150.44555601 512.67404898 159.1469735 521.90123391 167 532 C167.79921875 532.99386719 168.5984375 533.98773437 169.421875 535.01171875 C189.02682298 559.5934545 201.76646373 587.79717224 210 618 C210.33 618 210.66 618 211 618 C211.21896925 611.24616722 210.52508351 605.26113581 209 598.6875 C208.77852295 597.73254639 208.5570459 596.77759277 208.32885742 595.79370117 C201.25359416 566.86463794 185.60014817 541.10850047 166 519 C164.824375 517.65808594 164.824375 517.65808594 163.625 516.2890625 C155.38490152 506.99034026 146.73689325 498.71842385 137 491 C135.92761957 490.12593877 134.85602952 489.2509071 133.78515625 488.375 C119.58026929 476.85479338 104.11421598 467.58887712 88 459 C86.9275 458.42765625 85.855 457.8553125 84.75 457.265625 C80.11395162 454.72938264 80.11395162 454.72938264 75 454 Z M-118.65844727 523.69506836 C-123.26500797 528.35707308 -128.03172114 532.72858433 -133 537 C-134.92924578 538.71583756 -136.83935544 540.4508014 -138.75 542.1875 C-140.10351562 543.41533203 -140.10351562 543.41533203 -141.484375 544.66796875 C-143.7102287 546.73137661 -145.87159819 548.83678788 -148 551 C-142.90734096 549.52455673 -138.65294293 547.30865103 -134.125 544.625 C-133.38467529 544.18655762 -132.64435059 543.74811523 -131.8815918 543.29638672 C-115.6206579 533.46628187 -101.25864444 520.96119304 -87.5 507.9375 C-70.04304248 491.46799311 -50.80430696 477.91169833 -28 470 C-28 469.67 -28 469.34 -28 469 C-64.64348928 467.06831446 -95.34658794 499.99882089 -118.65844727 523.69506836 Z M31 536 C29.42591084 547.47814645 28.62781365 558.72856134 28.6875 570.3125 C28.68965515 571.07346985 28.6918103 571.8344397 28.69403076 572.61846924 C28.87349998 612.27494265 42.27293991 649.2338931 66 681 C66.44311523 681.59329102 66.88623047 682.18658203 67.34277344 682.79785156 C84.56258553 705.62762435 104.74118811 725.90157832 125 746 C128.44047958 749.41368557 131.87747133 752.83083049 135.3125 756.25 C136.08239258 757.01159424 136.85228516 757.77318848 137.64550781 758.55786133 C141.76931523 762.66305622 145.70251812 766.86243429 149.49905396 771.27197266 C151.24574662 773.28292615 153.0732449 775.18764097 154.96484375 777.0625 C155.61904297 777.71347656 156.27324219 778.36445312 156.94726562 779.03515625 C157.60404297 779.68355469 158.26082031 780.33195313 158.9375 781 C159.96327148 782.01900391 159.96327148 782.01900391 161.00976562 783.05859375 C162.67087159 784.70808359 164.33428513 786.3551668 166 788 C166 783.57240117 163.29582746 781.05341649 160.6875 777.6875 C160.14351562 776.9754541 159.59953125 776.2634082 159.0390625 775.52978516 C157.36705408 773.34715468 155.68439731 771.17307739 154 769 C153.05855827 767.77476684 152.11714982 766.54950811 151.17578125 765.32421875 C142.59198213 754.21934739 133.44050238 743.62023063 124.01171875 733.2265625 C122.15265331 731.16895609 120.32071642 729.09153237 118.5 727 C115.86310364 723.97245233 113.18983431 720.98062721 110.5 718 C106.6248395 713.70150264 102.79141524 709.37241797 99 705 C98.58411621 704.52643066 98.16823242 704.05286133 97.73974609 703.56494141 C58.28574578 658.62773963 34.26893431 610.40240271 32.4375 549.875 C32.39418869 548.52342758 32.35057098 547.17186494 32.30664062 545.8203125 C32.20142566 542.54695806 32.09928521 539.27353875 32 536 C31.67 536 31.34 536 31 536 Z M211 618 C211 619.65 211 621.3 211 623 C211.33 623 211.66 623 212 623 C212 621.35 212 619.7 212 618 C211.67 618 211.34 618 211 618 Z M83 794 C80.11383989 795.2830864 77.31740497 796.64011821 74.5 798.0625 C26.22780726 821.65289594 -25.8862526 838.34167914 -78 851 C-78 851.33 -78 851.66 -78 852 C-34.81394432 849.0803013 9.14923437 834.26085517 48 816 C49.35907471 815.36578125 49.35907471 815.36578125 50.74560547 814.71875 C62.80592917 809.04434664 73.9881128 802.50291796 85 795 C84.01 794.505 84.01 794.505 83 794 Z M119.30859375 820.96484375 C118.62861832 821.18881836 117.94864288 821.41279297 117.24806213 821.64355469 C114.97415209 822.39752204 112.70571577 823.16658296 110.4375 823.9375 C109.64835205 824.20265411 108.8592041 824.46780823 108.04614258 824.74099731 C92.20338215 830.07080753 76.60832685 836.00781302 61.01174927 842.01196289 C8.50075761 862.2212977 -43.4121573 878.70985363 -100 882 C-100 882.33 -100 882.66 -100 883 C-38.07698316 896.89838543 37.39148549 858.70404992 92.90771484 835.15673828 C99.97462522 832.16052425 107.05539666 829.19747394 114.13604736 826.23391724 C117.33489219 824.89460142 120.53266465 823.55273628 123.73046875 822.2109375 C124.75551514 821.78087402 125.78056152 821.35081055 126.83666992 820.90771484 C127.55056885 820.60816895 128.26446777 820.30862305 129 820 C125.0194179 818.6731393 123.27797745 819.64902451 119.30859375 820.96484375 Z " fill="#1B1918" transform="translate(809,37)"/>
<path d="M0 0 C0.66 0 1.32 0 2 0 C1.90912109 0.77375977 1.81824219 1.54751953 1.72460938 2.34472656 C-2.55073007 39.34285636 0.7948814 69.26353662 11.18237305 105.01416016 C20.30492683 136.67259771 19.81728143 168.65107062 13.3125 200.875 C8.92153446 223.03782079 13.82455457 248.97930414 26 268 C33.39554369 278.22350697 43.63206231 286.60988479 55 292 C54.60167969 290.86304688 54.20335937 289.72609375 53.79296875 288.5546875 C46.49315461 267.41468349 43.66326624 247.07735529 43.84967041 224.80098915 C43.87568007 221.6560509 43.8883501 218.51128558 43.89794922 215.36625671 C43.92440038 207.55688478 43.97272189 199.74767925 44.02075195 191.93841553 C44.06063113 185.32003328 44.09173613 178.70171504 44.11187744 172.08324242 C44.12458543 169.02553335 44.1495932 165.96809958 44.17529297 162.91047668 C44.3018637 139.0604598 42.25334362 115.35572645 33.85546875 92.87109375 C33 90 33 90 34 87 C62.85948016 115.9959316 69.69987289 159.38876684 74.73242188 198.20922852 C76.61645078 212.3717187 79.26839459 226.84653343 85.6875 239.75 C86.02217285 240.43916504 86.3568457 241.12833008 86.70166016 241.83837891 C100.53521235 269.3346987 124.6252973 287.67419839 153.32421875 297.5 C193.82819582 310.77070004 249.6051335 310.49893348 288.71362305 291.48852539 C291.31658699 290.13919613 293.89231598 288.74188133 296.46826172 287.34179688 C302.09528473 284.35952894 307.83434951 281.59413068 313.5625 278.8125 C314.22640747 278.48997253 314.89031494 278.16744507 315.57434082 277.83514404 C361.8621411 255.42115083 412.34708658 235.58211329 464 231 C465.09828125 230.89042969 466.1965625 230.78085937 467.328125 230.66796875 C531.68583695 225.05537759 582.86149206 250.14982278 635.66577148 283.88574219 C656.01901631 296.87128695 676.97619457 308.29566115 700.12353516 315.41748047 C702.76297549 316.23685396 705.38154541 317.11622019 708 318 C708 318.33 708 318.66 708 319 C664.74631308 316.16353504 623.67939252 299.48387233 584.12609863 282.89111328 C520.28425613 255.25319114 520.28425613 255.25319114 452.99853516 262.3984375 C433.45461386 270.42037441 417.03346041 283.3793903 402 298 C401.47921875 298.50031738 400.9584375 299.00063477 400.421875 299.51611328 C389.77814747 309.49034073 389.77814747 309.49034073 381 321 C381.05598427 323.75849774 381.67883377 324.67256711 383.6015625 326.6328125 C391.70320278 332.6073812 399.04302075 333.89000932 409 333 C418.83135149 331.47507747 428.03366829 328.49309504 437.14453125 324.5625 C446.54353043 320.63928288 456.04904818 318.14395385 466.0625 316.375 C467.25077393 316.16335205 468.43904785 315.9517041 469.66333008 315.73364258 C497.53246886 310.88429558 526.07485226 309.85414275 554 315 C554.75732422 315.13921875 555.51464844 315.2784375 556.29492188 315.421875 C589.278645 321.77734707 618.03428333 337.71609603 642 361 C642.55107422 361.52770996 643.10214844 362.05541992 643.66992188 362.59912109 C647.97280682 366.78933403 651.74827289 371.21658695 655.375 376 C656.21417969 377.10432373 656.21417969 377.10432373 657.0703125 378.23095703 C664.71446736 388.45019272 671.11107083 399.18304054 676 411 C673.00829279 409.61548419 670.5533261 407.99073907 667.97265625 405.9453125 C645.65631687 388.54929215 621.71427883 375.34171525 594 369 C592.98341309 368.75443359 592.98341309 368.75443359 591.94628906 368.50390625 C549.16889001 358.55471781 504.59224617 370.99256246 463.23416138 381.47038269 C459.79456994 382.3414676 456.35433654 383.20998452 452.9140625 384.07836914 C448.46694006 385.20119679 444.0234718 386.33710299 439.58203125 387.48217773 C417.51801631 393.11851615 395.8111691 397.23123454 373 397.25 C372.26289795 397.25067474 371.5257959 397.25134949 370.76635742 397.25204468 C359.87433249 397.23620119 349.58680079 396.78127817 339 394 C338.32195312 393.83371094 337.64390625 393.66742187 336.9453125 393.49609375 C322.09534577 389.82439868 308.92476783 383.70057301 296.125 375.375 C258.06659892 350.63942192 214.85351744 335.85792383 169.3125 335.75 C168.64135162 335.74832825 167.97020325 335.74665649 167.27871704 335.74493408 C150.91946209 335.74251368 135.0005141 337.64077605 119 341 C127.33231232 356.30726704 139.33648805 365.5737141 155.8125 370.8125 C175.39047481 376.58094755 195.66717445 377.44333557 215.9375 378.4609375 C281.72582584 381.7750989 281.72582584 381.7750989 301.890625 401.6015625 C312.9375167 414.16228751 318.76011881 431.27738616 318 448 C316.85329616 447.14700232 315.70771066 446.29250133 314.5625 445.4375 C313.45068359 444.61185547 313.45068359 444.61185547 312.31640625 443.76953125 C310.85913496 442.65630377 309.42494867 441.51149105 308.02734375 440.32421875 C297.11414807 431.17732064 283.90464949 425.67843394 270 423 C269.20820847 422.83123856 268.41641693 422.66247711 267.60063171 422.48860168 C257.3026975 420.57694938 247.07404302 420.78480286 236.63661194 420.88023567 C233.21047826 420.91078734 229.78451925 420.9273204 226.35827637 420.94029236 C216.62478446 420.97971022 206.89150423 421.04461961 197.15820312 421.11645508 C191.17799027 421.15962925 185.19784893 421.18744095 179.21751404 421.20675468 C176.96289047 421.21718812 174.70828473 421.23342731 172.45375061 421.25605965 C134.21004977 421.63924888 100.19204054 413.16916203 69.85302734 389.43554688 C68.14520116 388.11248786 66.41947882 386.82210864 64.67578125 385.546875 C58.08299302 380.71835404 51.93416792 375.61743054 46 370 C44.69095703 368.78763672 44.69095703 368.78763672 43.35546875 367.55078125 C3.89647086 329.78530258 -9.81396308 272.58783405 -21.06787109 221.08886719 C-22.70796651 213.80711575 -24.8248752 206.70022478 -27 199.5625 C-32.13598836 182.66363498 -36.21531151 165.59785857 -38 148 C-38.16628906 146.4840625 -38.16628906 146.4840625 -38.3359375 144.9375 C-42.96676134 95.87579878 -30.19457152 39.71506253 0 0 Z " fill="#1B1918" transform="translate(518,650)"/>
<path d="M0 0 C-0.65047684 3.93405137 -1.83844833 7.33046295 -3.37890625 11.00390625 C-3.8795459 12.20039795 -4.38018555 13.39688965 -4.89599609 14.62963867 C-5.4511798 15.94072698 -6.00669145 17.25167646 -6.5625 18.5625 C-6.84700012 19.23793854 -7.13150024 19.91337708 -7.42462158 20.60928345 C-11.77888028 30.9462436 -16.28856731 41.20929002 -20.87173462 51.44650269 C-38.38419494 90.56414523 -55.97885053 130.23018498 -64.8046875 172.37109375 C-64.95353897 173.07180496 -65.10239044 173.77251617 -65.25575256 174.49446106 C-65.97460162 177.89007795 -66.66519411 181.28679293 -67.3034668 184.69848633 C-68.93994251 192.6850115 -71.01370364 197.46269685 -77 203 C-77.84304688 203.92425781 -78.68609375 204.84851563 -79.5546875 205.80078125 C-80.32039062 206.62964844 -81.08609375 207.45851563 -81.875 208.3125 C-85.91279322 212.74496474 -89.77307434 217.27742177 -93.53515625 221.9453125 C-95.34085175 224.1831158 -97.15979312 226.40481899 -98.99609375 228.6171875 C-115.89082628 249.0466518 -130.96946083 270.9125157 -144 294 C-144.37721191 294.65726074 -144.75442383 295.31452148 -145.14306641 295.99169922 C-155.98996224 314.99139843 -163.9658645 335.7203167 -169 357 C-169.17644043 357.72654785 -169.35288086 358.4530957 -169.53466797 359.20166016 C-173.36750503 375.77516668 -172.28521548 393.10793043 -172 410 C-183.34389072 400.87114177 -189.710249 388.32224861 -192 374 C-193.01992654 360.60488446 -192.57327766 346.9824967 -189 334 C-188.80083984 333.25878906 -188.60167969 332.51757812 -188.39648438 331.75390625 C-177.90454533 294.05720489 -154.94457118 259.50095359 -131.89697266 228.44311523 C-131.39601074 227.76450439 -130.89504883 227.08589355 -130.37890625 226.38671875 C-129.9413501 225.80108154 -129.50379395 225.21544434 -129.05297852 224.61206055 C-127.81325986 222.86319164 -127.81325986 222.86319164 -127 220 C-151.87204469 226.24679826 -172.09500454 236.54043267 -191 254 C-191.87011719 254.78761719 -192.74023438 255.57523438 -193.63671875 256.38671875 C-204.22712549 266.43140405 -212.77565077 278.71189038 -220.609375 290.97265625 C-221.06828125 291.64167969 -221.5271875 292.31070312 -222 293 C-222.33 293 -222.66 293 -223 293 C-222.777696 283.46113742 -220.14339316 274.90589737 -217 266 C-216.64035156 264.96746094 -216.28070313 263.93492187 -215.91015625 262.87109375 C-204.43515103 232.85640038 -178.46070551 209.14566216 -154.80810547 188.57617188 C-152.51475275 186.57699753 -150.25528859 184.54195048 -148 182.5 C-145.76619606 180.47750184 -143.53235859 178.45850237 -141.24902344 176.49194336 C-123.9459797 161.57142228 -108.38892293 145.50397371 -97.5 125.3125 C-97.10216309 124.57700928 -96.70432617 123.84151855 -96.29443359 123.08374023 C-90.90178467 112.56333226 -88.53639709 101.44463148 -86.8984375 89.82421875 C-80.13593137 46.68642471 -80.13593137 46.68642471 -71.4140625 39.30078125 C-66.18650676 35.72379635 -60.55351326 33.47547496 -54.59228516 31.39990234 C-48.77802763 29.13410429 -43.70257709 25.78660915 -38.46160889 22.4369812 C-35.57225603 20.60562632 -32.63745264 18.85050375 -29.70703125 17.0859375 C-25.33320651 14.43028862 -20.9767279 11.74961708 -16.63671875 9.0390625 C-15.17069214 8.12386841 -15.17069214 8.12386841 -13.67504883 7.19018555 C-11.85332547 6.04988107 -10.03401343 4.90571217 -8.2175293 3.75708008 C-7.02317261 3.00914185 -7.02317261 3.00914185 -5.8046875 2.24609375 C-5.11358887 1.80966553 -4.42249023 1.3732373 -3.71044922 0.92358398 C-2 0 -2 0 0 0 Z " fill="#1B1918" transform="translate(525,581)"/>
<path d="M0 0 C12.2470021 4.53202315 19.83316468 15.21944818 25.13354492 26.65649414 C31.25705445 40.99271055 33.11525358 57.28805726 31.0625 72.6887207 C25.53495213 116.18425101 36.15656315 163.12390118 63.1484375 198 C67.40984393 203.1854007 71.93178143 208.08186082 76.5625 212.9375 C77.34109375 213.78054688 78.1196875 214.62359375 78.921875 215.4921875 C94.1475603 231.48426635 113.70129118 242.69492823 133.5625 251.9375 C134.26793945 252.2660498 134.97337891 252.59459961 135.70019531 252.93310547 C157.35385611 262.85891106 180.39599109 268.72127958 203.5625 273.9375 C203.5625 274.2675 203.5625 274.5975 203.5625 274.9375 C165.72492559 281.2437624 120.53610954 271.80574464 86.5625 254.9375 C85.90459473 254.61668457 85.24668945 254.29586914 84.56884766 253.96533203 C71.3158477 247.44968736 59.71413546 239.29105046 48.95703125 229.1796875 C46.95878314 227.308571 44.92740836 225.54756894 42.8125 223.8125 C18.22887645 202.83214988 2.67071508 168.75941894 -7.4375 138.9375 C-7.75702637 137.99680664 -8.07655273 137.05611328 -8.40576172 136.08691406 C-13.41043795 121.09643062 -16.81144294 105.86054462 -19.88427734 90.36987305 C-20.33422313 87.94595972 -20.33422313 87.94595972 -21.4375 85.9375 C-32.61321253 102.29848549 -38.62300029 120.70392238 -38.5703125 140.58203125 C-38.57126923 141.39185959 -38.57222595 142.20168793 -38.57321167 143.03605652 C-38.57388877 144.74124225 -38.57206747 146.44643063 -38.56787109 148.15161133 C-38.56253722 150.73199399 -38.56782132 153.31220095 -38.57421875 155.89257812 C-38.57714985 163.97451075 -38.4772988 171.90794261 -37.4375 179.9375 C-49.26245023 174.40202563 -56.24598005 157.76397626 -60.75 146 C-61.70544943 143.32980358 -62.59034893 140.64384879 -63.4375 137.9375 C-63.77910156 136.85082031 -64.12070312 135.76414062 -64.47265625 134.64453125 C-68.94863832 116.8863326 -68.43610172 94.51748795 -63.4375 76.9375 C-63.23882324 76.23302734 -63.04014648 75.52855469 -62.83544922 74.80273438 C-54.34645117 45.42507819 -37.04986889 20.31303384 -14.4375 -0.0625 C-9.99313589 -2.28468205 -4.62207022 -1.32174991 0 0 Z " fill="#1B1918" transform="translate(455.4375,835.0625)"/>
<path d="M0 0 C-1.29701918 3.42010253 -2.78584647 6.54654007 -4.6171875 9.7109375 C-5.39449219 11.06481567 -5.39449219 11.06481567 -6.1875 12.44604492 C-6.744375 13.4126001 -7.30125 14.37915527 -7.875 15.375 C-17.11567866 31.60394189 -25.71187936 48.02298431 -33.5 65 C-50.20933903 101.37500321 -50.20933903 101.37500321 -62 116 C-62.46905762 116.58571777 -62.93811523 117.17143555 -63.42138672 117.77490234 C-80.07322863 138.35774288 -80.07322863 138.35774288 -88 141 C-85.99076828 113.74022895 -77.51016062 84.8285114 -64 61 C-63.36837845 59.81133469 -62.739495 58.62121062 -62.11328125 57.4296875 C-52.2666582 39.02297282 -23.76335208 0 0 0 Z " fill="#1B1918" transform="translate(414,640)"/>
</svg>
